<!--
  ~ Copyright 2018 Firespring, Inc.
  ~
  ~ Licensed under the Apache License, Version 2.0 (the "License");
  ~ you may not use this file except in compliance with the License.
  ~ You may obtain a copy of the License at
  ~
  ~     http://www.apache.org/licenses/LICENSE-2.0
  ~
  ~ Unless required by applicable law or agreed to in writing, software
  ~ distributed under the License is distributed on an "AS IS" BASIS,
  ~ WITHOUT WARRANTIES OR CONDITIONS OF ANY KIND, either express or implied.
  ~ See the License for the specific language governing permissions and
  ~ limitations under the License.
  -->

<svg xmlns="http://www.w3.org/2000/svg" width="70" height="70" viewBox="0 0 70 70">
	<g fill="#ffffff">
		<path d="M32.5 29c24.5-10.4 19-24.8 19-24.8C46.6 1.2 41.3 0 35 0 15.7 0 0 15.7 0 35c0 10.4 4.6 19.7 11.8 26-2.6-13 4-24.8 20.7-32z"/>
		<path d="M54.3 6C56.3 31.3 26 32.5 26 44.6 35 35.5 45.4 39 45.4 39 31 39.4 21 58.3 30.7 69.5c1.4.2 3 .3 4.3.3 19.3 0 35-15.7 35-35 0-12.5-6-23-15.7-29z"/>
	</g>
</svg>