<!--
  ~ Copyright 2018 Firespring, Inc.
  ~
  ~ Licensed under the Apache License, Version 2.0 (the "License");
  ~ you may not use this file except in compliance with the License.
  ~ You may obtain a copy of the License at
  ~
  ~     http://www.apache.org/licenses/LICENSE-2.0
  ~
  ~ Unless required by applicable law or agreed to in writing, software
  ~ distributed under the License is distributed on an "AS IS" BASIS,
  ~ WITHOUT WARRANTIES OR CONDITIONS OF ANY KIND, either express or implied.
  ~ See the License for the specific language governing permissions and
  ~ limitations under the License.
  -->

<svg xmlns="http://www.w3.org/2000/svg" width="320" height="70" viewBox="0 0 320 70">
	<g>
		<path d="M32.5 29c24.6-10.3 19-24.8 19-24.8C46.6 1.2 41.3 0 35 0 15.7 0 0 15.7 0 35c0 10.4 4.6 19.7 11.8 26-2.5-13 4-24.8 20.7-32z"/>
		<path d="M54.3 6C56.3 31.3 26 32.5 26 44.6 35 35.5 45.4 39 45.4 39 31 39.4 21 58.3 30.7 69.5c1.4.2 3 .3 4.3.3 19.4 0 35-15.7 35-35 0-12.5-6-23-15.7-29z"/>
	</g>
	<path d="M113 15.6l-1.3 6.3h-12v9.3h10v6.3h-10v17.8h-7.6V15.6h21zM125.3 19.3c0 2.6-2 4.6-4.5 4.6s-4.6-2-4.6-4.7c0-2.5 2-4.6 4.7-4.6 2.4 0 4.3 2 4.3 4.6zm-.8 7v29H117V27.7l7.5-1.2zM135.2 26.4c.7 1.2 1 2.5 1.2 4 1-1.4 2.8-3 4.2-3.5.6-.4 1.6-.6 2.4-.6 1 0 1.6.2 2.8.7l-2 6.6c-.8-.4-1.4-.6-2.2-.6-1.7 0-3.2.8-4.5 2.4v20h-7.4v-19c0-3.7-.4-6.6-1-8.2l6.6-1.8zM170 52.3c-3.4 2.6-6.8 4-10.8 4-8 0-13.4-6-13.4-14.8 0-5 1-8.4 3.6-11.2 2.3-2.6 5-3.8 9-3.8 3 0 6.2 1 8 3 2.7 2.6 3.8 6.5 3.8 12.4v1.6H154v.2c0 4.4 2 7 5.8 7 2.6 0 5-1 7.2-3l3 4.5zm-7.5-14v-.5c0-2-.2-3.2-.8-4.2-.8-1-1.8-1.7-3.3-1.7-2.8 0-4.4 2-4.4 6v.2h8.5zM192.6 34c-3-1.5-5-2-7-2-2.2 0-3.6 1-3.6 2.7 0 1.4 1 2.2 3.5 3l3.5.7c3.4 1 4.6 2 5.6 3.2 1 1.4 1.6 3 1.6 5 0 5.7-5 9.7-12.2 9.7-3.4 0-7.3-1-11.4-3.3l2.7-5.4c2.2 1.4 6 3.2 9.4 3.2 2 0 3.7-1.4 3.7-3.2 0-2-1.4-3-4.4-3.5l-3.3-.5c-1.8-.3-4.2-1.6-5.2-2.8-1-1.3-1.6-3.3-1.6-5 0-5.7 4.3-9.4 11-9.4 4.4 0 7.4 1.4 10 2.7l-2.4 5zM206 26.6l.4 2.6c1.3-1.5 4-2.6 7-2.6 2 0 4 .6 5.6 1.7 3 2 5.2 5.7 5.2 12.2 0 6-1 9.2-4 12.3-2 2-4.4 3.2-7.5 3.2-2.2 0-4.3-.5-6-1.5.2.7.2 1.5.2 2.3v9l-7.2 1.8V34.8c0-3.7 0-4.7-.5-7l6.6-1.2zm5 23.6c3.7 0 5-2.5 5-9 0-2.7 0-5-.6-6.2-.5-1.6-1.7-2.4-3.5-2.4-2 0-3.7.8-5 2v14c1 .7 2.6 1.6 4 1.6zM232.8 26.4c.7 1.2 1 2.5 1.2 4 1-1.4 2.8-3 4.2-3.5.6-.4 1.6-.6 2.4-.6 1 0 1.6.2 2.8.7l-2 6.6c-.8-.4-1.4-.6-2.2-.6-1.7 0-3.2.8-4.5 2.4v20h-7.5v-19c0-3.7-.4-6.6-1-8.2l6.6-1.8zM254.8 19.3c0 2.6-2 4.6-4.6 4.6-2.5 0-4.5-2-4.5-4.7 0-2.5 2-4.6 4.6-4.6 2.5 0 4.5 2 4.5 4.6zm-1 7v29h-7.3V27.7l7.4-1.2zM263.6 26.4c.7 1 1 2.4 1 3.5 1.2-.8 2-1.5 3.3-2.2 1.4-.7 3.4-1.2 5-1.2 3.2 0 6 1.7 6.8 4 .4 1 .6 2.4.6 4v20.8H273V37c0-3.2-.5-4-2.4-4-1.5 0-3.4 1-5.2 2.4v20H258V35c0-2.5-.3-5-1-6.7l6.6-2zM313.5 30.2c-1.6 1.5-3.2 2-5.2 2h-2c1.2 1.3 1.7 2.7 1.7 4.6 0 4.8-4.4 8.4-10.4 8.4h-1c-2 .8-3 1.5-3 2.2 0 .4.4.7 1 .7l4 .2c4.4 0 6.7.7 8.7 2.5 1.6 1.6 2.4 3.5 2.4 6 0 2.4-.7 4.2-2.2 6-2.5 2.6-6.8 3.5-11.2 3.5-4 0-8.2-.6-10.7-3-1.6-1.4-2.4-3-2.4-5 0-1.6.4-2.3.7-3h6.8c-.3.8-.4 1.2-.4 2 0 2.2 2 3.4 5.3 3.4 2 0 3.5-.2 4.7-1 1-.6 1.8-1.6 1.8-2.8 0-2.6-2.3-3.3-5.2-3.4h-3c-3.5 0-5.6-.4-7-1-1.3-.4-2-1.7-2-3.6 0-1.8.5-3.6 5-4.8-4-1-6-3.6-6-7.8 0-5.8 4.7-9.6 12-9.6 1.6 0 3 .2 5 .7 1.6.4 2.6.6 3.5.6 2 0 4.2-1 6-2.5l3 4.7zm-22 6c0 3 1.7 4 4.3 4 3 0 4.6-1.4 4.6-4S298.7 32 296 32s-4.5 1.6-4.5 4.2zM317 27.6c-1.5 0-2.8-1.3-2.8-3 0-1.6 1.3-3 3-3 1.5 0 2.8 1.4 2.8 3 0 1.7-1.3 3-3 3zm0-5.4c-1.2 0-2.3 1-2.3 2.4s1 2.5 2.4 2.5 2.4-1 2.4-2.4-1-2.4-2.3-2.4zm.7 4l-.2-.5-.6-.8c-.2 0-.2-.2-.3-.2v1.5h-.6V23h1c1 0 1.2.4 1.2 1 0 .4-.3.8-.8.8l.5.7.4.8h-.7zm-1-2.8v1h.8v-.5c0-.4 0-.6-.5-.6h-.3z"/>
</svg>