<!--
  ~ Copyright (C) 2017  Firespring
  ~
  ~ This program is free software: you can redistribute it and/or modify
  ~ it under the terms of the GNU General Public License as published by
  ~ the Free Software Foundation, either version 3 of the License, or
  ~ (at your option) any later version.
  ~
  ~ This program is distributed in the hope that it will be useful,
  ~ but WITHOUT ANY WARRANTY; without even the implied warranty of
  ~ MERCHANTABILITY or FITNESS FOR A PARTICULAR PURPOSE.  See the
  ~ GNU General Public License for more details.
  ~
  ~ You should have received a copy of the GNU General Public License
  ~ along with this program.  If not, see <http://www.gnu.org/licenses/>.
  -->

<svg xmlns="http://www.w3.org/2000/svg" width="70" height="70" viewBox="0 0 70 70">
	<g>
		<path d="M32.5 29c24.5-10.4 19-24.8 19-24.8C46.6 1.2 41.3 0 35 0 15.7 0 0 15.7 0 35c0 10.4 4.6 19.7 11.8 26-2.6-13 4-24.8 20.7-32z"/>
		<path d="M54.3 6C56.3 31.3 26 32.5 26 44.6 35 35.5 45.4 39 45.4 39 31 39.4 21 58.3 30.7 69.5c1.4.2 3 .3 4.3.3 19.3 0 35-15.7 35-35 0-12.5-6-23-15.7-29z"/>
	</g>
</svg>