<!--
  ~ Copyright (C) 2017  Firespring
  ~
  ~ This program is free software: you can redistribute it and/or modify
  ~ it under the terms of the GNU General Public License as published by
  ~ the Free Software Foundation, either version 3 of the License, or
  ~ (at your option) any later version.
  ~
  ~ This program is distributed in the hope that it will be useful,
  ~ but WITHOUT ANY WARRANTY; without even the implied warranty of
  ~ MERCHANTABILITY or FITNESS FOR A PARTICULAR PURPOSE.  See the
  ~ GNU General Public License for more details.
  ~
  ~ You should have received a copy of the GNU General Public License
  ~ along with this program.  If not, see <http://www.gnu.org/licenses/>.
  -->

<svg xmlns="http://www.w3.org/2000/svg" width="228" height="54" viewBox="0 0 228 54">
	<path d="M21 1l-1.4 6.3h-12v9.3h10V23h-10v17.7H0V1h21zM33 4.7c0 2.6-2 4.6-4.5 4.6S24 7.3 24 4.6C24 2 26 0 29 0 31.2 0 33 2 33 4.6h.2zm-.8 7v29H25V13l7.4-1v-.3zm10.7 0c.8 1.3 1 2.6 1.3 4 1-1.3 2.8-3 4.2-3.4.6-.4 1.6-.6 2.4-.6 1 0 1.5.2 2.7.7l-2 6.6c-.8-.4-1.4-.6-2.2-.6-1.7 0-3.2.8-4.5 2.4v20h-7.4v-19c0-3.7-.4-6.6-1-8.2l6.6-1.8zm35 26c-3.5 2.6-7 4-11 4-8 0-13.3-6-13.3-14.8 0-5 1-8.5 3.6-11.3 2.3-2.6 5-3.8 9-3.8 3 0 6.2 1 8 3C77 17.4 78 21.3 78 27.2V29H62c0 4.5 2 7 5.7 7 2.6 0 5-1 7.2-3l3 4.6zm-7.6-14v-.5c0-2-.2-3.2-.8-4.2-.8-1-1.8-1.7-3.3-1.7-2.8 0-4.4 2-4.4 6v.2h8.4v.2zm30-4.3c-3-1.5-5-2-7-2S90 18.4 90 20c0 1.5 1 2.3 3.4 3l3.5.8c3.3 1 4.5 2 5.5 3.2 1 1.4 1.6 3 1.6 5 0 5.7-5 9.7-12 9.7-3.5 0-7.4-1-11.5-3.3l2.7-5.4c2.2 1.4 6 3.2 9.4 3.2 2 0 3.7-1.4 3.7-3.2 0-2-1.4-3-4.4-3.5l-3.4-.5c-1.8-.3-4.2-1.6-5.2-2.8-1-1.3-1.6-3.3-1.6-5 0-5.7 4.3-9.4 11-9.4 4.4 0 7.4 1.4 10 2.7l-2.4 5zM114 12l.3 2.6c1.3-1.5 4-2.6 7-2.6 2 0 4 .6 5.6 1.7 3 2 5 5.7 5 12.2 0 6-1 9-4 12.2-2 2-4.3 3.2-7.4 3.2-2.2 0-4.3-.5-6-1.5.2.6.2 1.4.2 2.2v9l-7.2 1.8V20.2c0-3.7 0-4.7-.5-7l6.7-1.2h.2zm5 23.6c3.6 0 5-2.5 5-9 0-2.7 0-5-.7-6.2-.5-1.6-1.7-2.4-3.5-2.4-2 0-3.7.8-5 2v14c1 .7 2.6 1.6 4 1.6zm21.7-23.8c.7 1.2 1 2.5 1.2 4 1-1.4 2.7-3 4-3.5.7-.4 1.7-.6 2.5-.6 1 0 1.6.2 2.8.7l-2 6.6c-.8-.4-1.4-.6-2.2-.6-1.6 0-3 .8-4.4 2.4v20H135v-19c0-3.7-.3-6.6-1-8.2l6.7-1.8zm22-7c0 2.5-2 4.5-4.6 4.5-2.4 0-4.4-2-4.4-4.7 0-2.5 2-4.6 4.6-4.6 2.5 0 4.5 2 4.5 4.6zm-1 7v29h-7.3V13l7.4-1v-.3zm9.8 0c.7 1 1 2.4 1 3.5 1.2-.8 2-1.5 3.3-2.2 1.4-.6 3.4-1 5-1 3.2 0 6 1.6 6.8 4 .4 1 .6 2.3.6 4v20.7H181V22.4c0-3.2-.6-4-2.5-4-1.5 0-3.4 1-5.2 2.4v20H166V20.4c0-2.5-.4-5-1-6.7l6.5-2zm50 3.8c-1.7 1.5-3.3 2-5.3 2h-2c1.2 1.3 1.7 2.7 1.7 4.6 0 4.8-4.5 8.4-10.5 8.4h-1c-2 .8-3 1.5-3 2.2 0 .4.4.7 1 .7l4 .2c4.4 0 6.7.7 8.7 2.5 1.6 1.6 2.4 3.5 2.4 6 0 2.4-.7 4.2-2.2 6-2.5 2.6-6.8 3.5-11.2 3.5-4 0-8.2-.6-10.7-3-1.6-1.4-2.4-3-2.4-5 0-1.6.5-2.3.8-3h6.8c-.3.8-.4 1.2-.4 2 0 2.2 2 3.4 5.3 3.4 2 0 3.5 0 4.7-1 1-.5 1.8-1.5 1.8-2.7 0-2.6-2.3-3.3-5.2-3.4h-3c-3.5 0-5.6-.5-7-1-1.3-.5-2-1.8-2-3.7 0-1.8.5-3.6 5-4.8-4-1-6-3.6-6-7.8 0-5.8 4.7-9.6 12-9.6 1.6 0 3 .3 5 .8 1.6.4 2.6.6 3.5.6 2 0 4.2-1 6-2.5l3 4.6zm-22 6c0 3 1.6 4 4.2 4 3 0 4.6-1.4 4.6-4s-1.7-4.2-4.4-4.2c-2.8 0-4.6 1.6-4.6 4.2zm25.4-8.6c-1.6 0-3-1.3-3-3 0-1.6 1.4-3 3-3s3 1.4 3 3c0 1.7-1.4 3-3 3zm0-5.4c-1.3 0-2.4 1-2.4 2.4s1 2.5 2.4 2.5 2.4-1 2.4-2.4c0-1.3-1-2.3-2.3-2.3zm.6 4l-.2-.5-.6-.7c-.2 0-.2-.2-.3-.2v1.6h-.6V8.4h1c1 0 1 .4 1 1 0 .4-.2.8-.7.8l.5.7.4.7h-.7zm-1-2.8v1h.8v-.5c0-.4 0-.6-.5-.6h-.4z"/>
</svg>