<!--
  ~ Copyright (C) 2017  Firespring
  ~
  ~ This program is free software: you can redistribute it and/or modify
  ~ it under the terms of the GNU General Public License as published by
  ~ the Free Software Foundation, either version 3 of the License, or
  ~ (at your option) any later version.
  ~
  ~ This program is distributed in the hope that it will be useful,
  ~ but WITHOUT ANY WARRANTY; without even the implied warranty of
  ~ MERCHANTABILITY or FITNESS FOR A PARTICULAR PURPOSE.  See the
  ~ GNU General Public License for more details.
  ~
  ~ You should have received a copy of the GNU General Public License
  ~ along with this program.  If not, see <http://www.gnu.org/licenses/>.
  -->

<svg xmlns="http://www.w3.org/2000/svg">
	<symbol id="firespring-icon">
		<title>Firespring Icon</title>
		<g>
			<path d="M32.5 29c24.5-10.4 19-24.8 19-24.8C46.6 1.2 41.3 0 35 0 15.7 0 0 15.7 0 35c0 10.4 4.6 19.7 11.8 26-2.6-13 4-24.8 20.7-32z"/>
			<path d="M54.3 6C56.3 31.3 26 32.5 26 44.6 35 35.5 45.4 39 45.4 39 31 39.4 21 58.3 30.7 69.5c1.4.2 3 .3 4.3.3 19.3 0 35-15.7 35-35 0-12.5-6-23-15.7-29z"/>
		</g>
	</symbol>
	<symbol id="firespring-logo">
		<title>Firespring Logo</title>
		<g>
			<path d="M32.5 29c24.6-10.3 19-24.8 19-24.8C46.6 1.2 41.3 0 35 0 15.7 0 0 15.7 0 35c0 10.4 4.6 19.7 11.8 26-2.5-13 4-24.8 20.7-32z"/>
			<path d="M54.3 6C56.3 31.3 26 32.5 26 44.6 35 35.5 45.4 39 45.4 39 31 39.4 21 58.3 30.7 69.5c1.4.2 3 .3 4.3.3 19.4 0 35-15.7 35-35 0-12.5-6-23-15.7-29z"/>
		</g>
		<path d="M113 15.6l-1.3 6.3h-12v9.3h10v6.3h-10v17.8h-7.6V15.6h21zM125.3 19.3c0 2.6-2 4.6-4.5 4.6s-4.6-2-4.6-4.7c0-2.5 2-4.6 4.7-4.6 2.4 0 4.3 2 4.3 4.6zm-.8 7v29H117V27.7l7.5-1.2zM135.2 26.4c.7 1.2 1 2.5 1.2 4 1-1.4 2.8-3 4.2-3.5.6-.4 1.6-.6 2.4-.6 1 0 1.6.2 2.8.7l-2 6.6c-.8-.4-1.4-.6-2.2-.6-1.7 0-3.2.8-4.5 2.4v20h-7.4v-19c0-3.7-.4-6.6-1-8.2l6.6-1.8zM170 52.3c-3.4 2.6-6.8 4-10.8 4-8 0-13.4-6-13.4-14.8 0-5 1-8.4 3.6-11.2 2.3-2.6 5-3.8 9-3.8 3 0 6.2 1 8 3 2.7 2.6 3.8 6.5 3.8 12.4v1.6H154v.2c0 4.4 2 7 5.8 7 2.6 0 5-1 7.2-3l3 4.5zm-7.5-14v-.5c0-2-.2-3.2-.8-4.2-.8-1-1.8-1.7-3.3-1.7-2.8 0-4.4 2-4.4 6v.2h8.5zM192.6 34c-3-1.5-5-2-7-2-2.2 0-3.6 1-3.6 2.7 0 1.4 1 2.2 3.5 3l3.5.7c3.4 1 4.6 2 5.6 3.2 1 1.4 1.6 3 1.6 5 0 5.7-5 9.7-12.2 9.7-3.4 0-7.3-1-11.4-3.3l2.7-5.4c2.2 1.4 6 3.2 9.4 3.2 2 0 3.7-1.4 3.7-3.2 0-2-1.4-3-4.4-3.5l-3.3-.5c-1.8-.3-4.2-1.6-5.2-2.8-1-1.3-1.6-3.3-1.6-5 0-5.7 4.3-9.4 11-9.4 4.4 0 7.4 1.4 10 2.7l-2.4 5zM206 26.6l.4 2.6c1.3-1.5 4-2.6 7-2.6 2 0 4 .6 5.6 1.7 3 2 5.2 5.7 5.2 12.2 0 6-1 9.2-4 12.3-2 2-4.4 3.2-7.5 3.2-2.2 0-4.3-.5-6-1.5.2.7.2 1.5.2 2.3v9l-7.2 1.8V34.8c0-3.7 0-4.7-.5-7l6.6-1.2zm5 23.6c3.7 0 5-2.5 5-9 0-2.7 0-5-.6-6.2-.5-1.6-1.7-2.4-3.5-2.4-2 0-3.7.8-5 2v14c1 .7 2.6 1.6 4 1.6zM232.8 26.4c.7 1.2 1 2.5 1.2 4 1-1.4 2.8-3 4.2-3.5.6-.4 1.6-.6 2.4-.6 1 0 1.6.2 2.8.7l-2 6.6c-.8-.4-1.4-.6-2.2-.6-1.7 0-3.2.8-4.5 2.4v20h-7.5v-19c0-3.7-.4-6.6-1-8.2l6.6-1.8zM254.8 19.3c0 2.6-2 4.6-4.6 4.6-2.5 0-4.5-2-4.5-4.7 0-2.5 2-4.6 4.6-4.6 2.5 0 4.5 2 4.5 4.6zm-1 7v29h-7.3V27.7l7.4-1.2zM263.6 26.4c.7 1 1 2.4 1 3.5 1.2-.8 2-1.5 3.3-2.2 1.4-.7 3.4-1.2 5-1.2 3.2 0 6 1.7 6.8 4 .4 1 .6 2.4.6 4v20.8H273V37c0-3.2-.5-4-2.4-4-1.5 0-3.4 1-5.2 2.4v20H258V35c0-2.5-.3-5-1-6.7l6.6-2zM313.5 30.2c-1.6 1.5-3.2 2-5.2 2h-2c1.2 1.3 1.7 2.7 1.7 4.6 0 4.8-4.4 8.4-10.4 8.4h-1c-2 .8-3 1.5-3 2.2 0 .4.4.7 1 .7l4 .2c4.4 0 6.7.7 8.7 2.5 1.6 1.6 2.4 3.5 2.4 6 0 2.4-.7 4.2-2.2 6-2.5 2.6-6.8 3.5-11.2 3.5-4 0-8.2-.6-10.7-3-1.6-1.4-2.4-3-2.4-5 0-1.6.4-2.3.7-3h6.8c-.3.8-.4 1.2-.4 2 0 2.2 2 3.4 5.3 3.4 2 0 3.5-.2 4.7-1 1-.6 1.8-1.6 1.8-2.8 0-2.6-2.3-3.3-5.2-3.4h-3c-3.5 0-5.6-.4-7-1-1.3-.4-2-1.7-2-3.6 0-1.8.5-3.6 5-4.8-4-1-6-3.6-6-7.8 0-5.8 4.7-9.6 12-9.6 1.6 0 3 .2 5 .7 1.6.4 2.6.6 3.5.6 2 0 4.2-1 6-2.5l3 4.7zm-22 6c0 3 1.7 4 4.3 4 3 0 4.6-1.4 4.6-4S298.7 32 296 32s-4.5 1.6-4.5 4.2zM317 27.6c-1.5 0-2.8-1.3-2.8-3 0-1.6 1.3-3 3-3 1.5 0 2.8 1.4 2.8 3 0 1.7-1.3 3-3 3zm0-5.4c-1.2 0-2.3 1-2.3 2.4s1 2.5 2.4 2.5 2.4-1 2.4-2.4-1-2.4-2.3-2.4zm.7 4l-.2-.5-.6-.8c-.2 0-.2-.2-.3-.2v1.5h-.6V23h1c1 0 1.2.4 1.2 1 0 .4-.3.8-.8.8l.5.7.4.8h-.7zm-1-2.8v1h.8v-.5c0-.4 0-.6-.5-.6h-.3z"/>
	</symbol>
	<symbol id="firespring-wordmark">
		<title>Firespring Wordmark</title>
		<g>
			<path d="M21 1l-1.4 6.3h-12v9.3h10V23h-10v17.7H0V1h21zM33 4.7c0 2.6-2 4.6-4.5 4.6S24 7.3 24 4.6C24 2 26 0 29 0 31.2 0 33 2 33 4.6h.2zm-.8 7v29H25V13l7.4-1v-.3zm10.7 0c.8 1.3 1 2.6 1.3 4 1-1.3 2.8-3 4.2-3.4.6-.4 1.6-.6 2.4-.6 1 0 1.5.2 2.7.7l-2 6.6c-.8-.4-1.4-.6-2.2-.6-1.7 0-3.2.8-4.5 2.4v20h-7.4v-19c0-3.7-.4-6.6-1-8.2l6.6-1.8zm35 26c-3.5 2.6-7 4-11 4-8 0-13.3-6-13.3-14.8 0-5 1-8.5 3.6-11.3 2.3-2.6 5-3.8 9-3.8 3 0 6.2 1 8 3C77 17.4 78 21.3 78 27.2V29H62c0 4.5 2 7 5.7 7 2.6 0 5-1 7.2-3l3 4.6zm-7.6-14v-.5c0-2-.2-3.2-.8-4.2-.8-1-1.8-1.7-3.3-1.7-2.8 0-4.4 2-4.4 6v.2h8.4v.2zm30-4.3c-3-1.5-5-2-7-2S90 18.4 90 20c0 1.5 1 2.3 3.4 3l3.5.8c3.3 1 4.5 2 5.5 3.2 1 1.4 1.6 3 1.6 5 0 5.7-5 9.7-12 9.7-3.5 0-7.4-1-11.5-3.3l2.7-5.4c2.2 1.4 6 3.2 9.4 3.2 2 0 3.7-1.4 3.7-3.2 0-2-1.4-3-4.4-3.5l-3.4-.5c-1.8-.3-4.2-1.6-5.2-2.8-1-1.3-1.6-3.3-1.6-5 0-5.7 4.3-9.4 11-9.4 4.4 0 7.4 1.4 10 2.7l-2.4 5zM114 12l.3 2.6c1.3-1.5 4-2.6 7-2.6 2 0 4 .6 5.6 1.7 3 2 5 5.7 5 12.2 0 6-1 9-4 12.2-2 2-4.3 3.2-7.4 3.2-2.2 0-4.3-.5-6-1.5.2.6.2 1.4.2 2.2v9l-7.2 1.8V20.2c0-3.7 0-4.7-.5-7l6.7-1.2h.2zm5 23.6c3.6 0 5-2.5 5-9 0-2.7 0-5-.7-6.2-.5-1.6-1.7-2.4-3.5-2.4-2 0-3.7.8-5 2v14c1 .7 2.6 1.6 4 1.6zm21.7-23.8c.7 1.2 1 2.5 1.2 4 1-1.4 2.7-3 4-3.5.7-.4 1.7-.6 2.5-.6 1 0 1.6.2 2.8.7l-2 6.6c-.8-.4-1.4-.6-2.2-.6-1.6 0-3 .8-4.4 2.4v20H135v-19c0-3.7-.3-6.6-1-8.2l6.7-1.8zm22-7c0 2.5-2 4.5-4.6 4.5-2.4 0-4.4-2-4.4-4.7 0-2.5 2-4.6 4.6-4.6 2.5 0 4.5 2 4.5 4.6zm-1 7v29h-7.3V13l7.4-1v-.3zm9.8 0c.7 1 1 2.4 1 3.5 1.2-.8 2-1.5 3.3-2.2 1.4-.6 3.4-1 5-1 3.2 0 6 1.6 6.8 4 .4 1 .6 2.3.6 4v20.7H181V22.4c0-3.2-.6-4-2.5-4-1.5 0-3.4 1-5.2 2.4v20H166V20.4c0-2.5-.4-5-1-6.7l6.5-2zm50 3.8c-1.7 1.5-3.3 2-5.3 2h-2c1.2 1.3 1.7 2.7 1.7 4.6 0 4.8-4.5 8.4-10.5 8.4h-1c-2 .8-3 1.5-3 2.2 0 .4.4.7 1 .7l4 .2c4.4 0 6.7.7 8.7 2.5 1.6 1.6 2.4 3.5 2.4 6 0 2.4-.7 4.2-2.2 6-2.5 2.6-6.8 3.5-11.2 3.5-4 0-8.2-.6-10.7-3-1.6-1.4-2.4-3-2.4-5 0-1.6.5-2.3.8-3h6.8c-.3.8-.4 1.2-.4 2 0 2.2 2 3.4 5.3 3.4 2 0 3.5 0 4.7-1 1-.5 1.8-1.5 1.8-2.7 0-2.6-2.3-3.3-5.2-3.4h-3c-3.5 0-5.6-.5-7-1-1.3-.5-2-1.8-2-3.7 0-1.8.5-3.6 5-4.8-4-1-6-3.6-6-7.8 0-5.8 4.7-9.6 12-9.6 1.6 0 3 .3 5 .8 1.6.4 2.6.6 3.5.6 2 0 4.2-1 6-2.5l3 4.6zm-22 6c0 3 1.6 4 4.2 4 3 0 4.6-1.4 4.6-4s-1.7-4.2-4.4-4.2c-2.8 0-4.6 1.6-4.6 4.2zm25.4-8.6c-1.6 0-3-1.3-3-3 0-1.6 1.4-3 3-3s3 1.4 3 3c0 1.7-1.4 3-3 3zm0-5.4c-1.3 0-2.4 1-2.4 2.4s1 2.5 2.4 2.5 2.4-1 2.4-2.4c0-1.3-1-2.3-2.3-2.3zm.6 4l-.2-.5-.6-.7c-.2 0-.2-.2-.3-.2v1.6h-.6V8.4h1c1 0 1 .4 1 1 0 .4-.2.8-.7.8l.5.7.4.7h-.7zm-1-2.8v1h.8v-.5c0-.4 0-.6-.5-.6h-.4z"/>
		</g>
	</symbol>
	<symbol id="caret-down">
		<g>
			<path d="M9 6.3v.4l-4 4q-.2.2-.4.2t-.4-.3l-4-4Q0 6.5 0 6.3T.2 6t.4-.3h8q.2 0 .4.2t0 .3z"/>
		</g>
	</symbol>
	<symbol id="search">
		<g>
			<path d="M10.286 7.43q0-1.653-1.174-2.827T6.286 3.43 3.46 4.602 2.286 7.43t1.174 2.825 2.826 1.174 2.826-1.175 1.174-2.826zm4.57 7.427q0 .464-.338.804t-.804.34q-.482 0-.804-.34l-3.063-3.053q-1.598 1.107-3.563 1.107-1.277 0-2.442-.496t-2.01-1.34T.495 9.87t-.496-2.442.496-2.442 1.34-2.01T3.84 1.64t2.442-.496 2.442.496 2.01 1.34 1.338 2.008.496 2.442q0 1.964-1.107 3.563l3.063 3.064q.33.33.33.804z"/>
		</g>
	</symbol>
	<symbol id="life-ring">
		<g>
			<path d="M8 0q1.6 0 3 .6t2.7 1.7T15.4 5t.6 3-.6 3-1.7 2.7-2.6 1.7-3 .6-3-.6-2.7-1.7T.6 11 0 8t.6-3 1.7-2.7T5 .6 8 0zm0 1Q6.3 1 4.8 2l1.7 1.7q.7-.3 1.5-.3t1.5.3L11.2 2Q9.7 1 8 1zM2 11.3l1.7-1.7q-.3-.7-.3-1.5t.3-1.5L2 4.8Q1 6.3 1 8t1 3.2zM8 15q1.7 0 3.2-1l-1.7-1.7q-.7.3-1.5.3t-1.5-.3L4.8 14q1.5 1 3.2 1zm0-3.6q1.4 0 2.4-1t1-2.4-1-2.4-2.4-1-2.4 1-1 2.4 1 2.4 2.4 1zm4.3-2l1.8 1.8q1-1.5 1-3.2t-1-3.2l-1.7 1.7q.3.7.3 1.5t-.3 1.5z"/>
		</g>
	</symbol>
	<symbol id="bars">
		<path class="path1" d="M13.714 12v1.143q0 0.232-0.17 0.402t-0.402 0.17h-12.571q-0.232 0-0.402-0.17t-0.17-0.402v-1.143q0-0.232 0.17-0.402t0.402-0.17h12.571q0.232 0 0.402 0.17t0.17 0.402zM13.714 7.429v1.143q0 0.232-0.17 0.402t-0.402 0.17h-12.571q-0.232 0-0.402-0.17t-0.17-0.402v-1.143q0-0.232 0.17-0.402t0.402-0.17h12.571q0.232 0 0.402 0.17t0.17 0.402zM13.714 2.857v1.143q0 0.232-0.17 0.402t-0.402 0.17h-12.571q-0.232 0-0.402-0.17t-0.17-0.402v-1.143q0-0.232 0.17-0.402t0.402-0.17h12.571q0.232 0 0.402 0.17t0.17 0.402z"/>
	</symbol>
	<symbol id="times">
		<path d="M11.589 11.804q0 0.357-0.25 0.607l-1.214 1.214q-0.25 0.25-0.607 0.25t-0.607-0.25l-2.625-2.625-2.625 2.625q-0.25 0.25-0.607 0.25t-0.607-0.25l-1.214-1.214q-0.25-0.25-0.25-0.607t0.25-0.607l2.625-2.625-2.625-2.625q-0.25-0.25-0.25-0.607t0.25-0.607l1.214-1.214q0.25-0.25 0.607-0.25t0.607 0.25l2.625 2.625 2.625-2.625q0.25-0.25 0.607-0.25t0.607 0.25l1.214 1.214q0.25 0.25 0.25 0.607t-0.25 0.607l-2.625 2.625 2.625 2.625q0.25 0.25 0.25 0.607z"/>
	</symbol>
	<symbol id="grid-circles">
		<title>Grid of Circles</title>
		<circle cx="35" cy="35" r="8.7"/>
		<circle cx="61.3" cy="35" r="8.7"/>
		<circle cx="8.7" cy="35" r="8.7"/>
		<circle cx="35" cy="8.7" r="8.7"/>
		<circle cx="61.3" cy="8.7" r="8.7"/>
		<circle cx="8.7" cy="8.7" r="8.7"/>
		<circle cx="35" cy="61.3" r="8.7"/>
		<circle cx="61.3" cy="61.3" r="8.7"/>
		<circle cx="8.7" cy="61.3" r="8.7"/>
	</symbol>
	<symbol id="ripply-scott" viewBox="0 0 100 100">
		<circle id="ripple-shape" cx="1" cy="1" r="1" />
	</symbol>
</svg>